<svg width="45" height="45" viewBox="0 0 45 45" fill="none" xmlns="http://www.w3.org/2000/svg">
<path d="M33.2006 23.0494C33.0267 22.8751 32.82 22.7369 32.5926 22.6425C32.3651 22.5482 32.1213 22.4996 31.875 22.4996C31.6288 22.4996 31.3849 22.5482 31.1575 22.6425C30.93 22.7369 30.7234 22.8751 30.5494 23.0494L27.5606 26.0381C26.175 25.6256 23.5894 24.6881 21.9506 23.0494C20.3119 21.4106 19.3744 18.825 18.9619 17.4394L21.9506 14.4506C22.1249 14.2767 22.2632 14.07 22.3575 13.8426C22.4518 13.6151 22.5004 13.3713 22.5004 13.125C22.5004 12.8788 22.4518 12.6349 22.3575 12.4075C22.2632 12.18 22.1249 11.9734 21.9506 11.7994L14.4506 4.29939C14.2767 4.12511 14.07 3.98685 13.8426 3.89252C13.6151 3.79819 13.3713 3.74963 13.125 3.74963C12.8788 3.74963 12.6349 3.79819 12.4075 3.89252C12.18 3.98685 11.9734 4.12511 11.7994 4.29939L6.71439 9.38439C6.00189 10.0969 5.60064 11.0756 5.61564 12.075C5.65877 14.745 6.36564 24.0188 13.6744 31.3275C20.9831 38.6363 30.2569 39.3413 32.9288 39.3863H32.9813C33.9713 39.3863 34.9069 38.9963 35.6156 38.2875L40.7006 33.2025C40.8749 33.0285 41.0132 32.8219 41.1075 32.5944C41.2018 32.367 41.2504 32.1231 41.2504 31.8769C41.2504 31.6306 41.2018 31.3868 41.1075 31.1593C41.0132 30.9319 40.8749 30.7252 40.7006 30.5513L33.2006 23.0494ZM32.9625 35.6344C30.6225 35.595 22.6163 34.9669 16.3256 28.6744C10.0144 22.3631 9.40314 14.3288 9.36564 12.0356L13.125 8.27626L17.9738 13.125L15.5494 15.5494C15.329 15.7696 15.167 16.0413 15.0779 16.3398C14.9889 16.6384 14.9756 16.9544 15.0394 17.2594C15.0844 17.475 16.185 22.5881 19.2975 25.7006C22.41 28.8131 27.5231 29.9138 27.7388 29.9588C28.0435 30.0243 28.3599 30.0121 28.6587 29.9233C28.9576 29.8345 29.2292 29.672 29.4488 29.4506L31.875 27.0263L36.7238 31.875L32.9625 35.6344Z" fill="white"/>
</svg>
