<svg width="45" height="45" viewBox="0 0 45 45" fill="none" xmlns="http://www.w3.org/2000/svg">
<path d="M22.5 3.75C12.1613 3.75 3.75 12.1613 3.75 22.5C3.75 32.8387 12.1613 41.25 22.5 41.25C32.8387 41.25 41.25 32.8387 41.25 22.5C41.25 12.1613 32.8387 3.75 22.5 3.75ZM22.5 37.5C14.2294 37.5 7.5 30.7706 7.5 22.5C7.5 14.2294 14.2294 7.5 22.5 7.5C30.7706 7.5 37.5 14.2294 37.5 22.5C37.5 30.7706 30.7706 37.5 22.5 37.5Z" fill="white"/>
<path d="M24.375 13.125H20.625V24.375H31.875V20.625H24.375V13.125Z" fill="white"/>
</svg>
